<?xml version="1.0" encoding="UTF-8"?><svg id="Pokéball" xmlns="http://www.w3.org/2000/svg" viewBox="0 0 511.5 511.4"><defs><style>.cls-1{fill:#fff;}.cls-2{fill:#ff1c1c;}.cls-3{fill:#df1818;}.cls-4{fill:#dfdfdf;}</style></defs><g id="Pokéball-2"><g id="Colours"><path id="Down" class="cls-1" d="M255.7,339.6c-40.4,0-74.1-28.6-82.1-66.6H39.2c9.5,110.5,102.2,197.2,215.1,197.2s205.7-86.7,215.1-197.2h-131.6c-8,38.1-41.7,66.6-82.1,66.6Z"/><path id="Shadow_Down" class="cls-4" d="M303.7,464.6c89.6-21,157.7-97.7,165.7-191.6h-53c-5.3,85.2-50,157.4-112.7,191.6Z"/><path id="Center" class="cls-1" d="M305.2,255.7h0q-.1,0,0,0c-.1-6.1-1.2-11.9-3.2-17.3-7-18.8-25.1-32.1-46.3-32.1s-39.3,13.4-46.3,32.1c-2,5.4-3.1,11.2-3.1,17.3h.1c0,6.1,1.1,11.9,3.1,17.3,7,18.8,25.1,32.1,46.3,32.1s39.3-13.4,46.3-32.1c2-5.3,3.1-11.2,3.1-17.3h0Z"/><path id="Up" class="cls-2" d="M255.8,171.9c40.4,0,74.1,28.6,82.1,66.6h134.4c-9.5-110.6-102.2-197.3-215.2-197.3S51.5,127.9,42,238.4H173.7c8-38,41.7-66.5,82.1-66.5Z"/><path id="Shadow_Up" class="cls-3" d="M416.4,238.4h55.8c-8.2-95.5-78.6-173.3-170.5-192.6,63.8,33.7,109.3,106.6,114.7,192.6Z"/></g><path id="Line" d="M257.1,41.2c113,0,205.7,86.7,215.1,197.2h-134.4c-8-38-41.7-66.6-82.1-66.6s-74.1,28.6-82.1,66.6H42C51.5,127.9,144.2,41.2,257.1,41.2Zm44.9,197.2c2,5.4,3.1,11.2,3.1,17.3h.1c0,6.1-1.1,11.9-3.1,17.3-7,18.8-25.1,32.1-46.3,32.1s-39.3-13.4-46.3-32.1c-2-5.4-3.1-11.2-3.1-17.3h-.1c0-6.1,1.1-11.9,3.1-17.3,7-18.8,25.1-32.1,46.3-32.1s39.3,13.4,46.3,32.1Zm-47.7,231.9c-113,0-205.7-86.7-215.1-197.2H173.6c8,38,41.7,66.6,82.1,66.6s74.1-28.6,82.1-66.6h131.7c-9.5,110.4-102.2,197.2-215.2,197.2ZM255.7,0C114.5,0,0,114.5,0,255.7s114.5,255.7,255.7,255.7,255.8-114.4,255.8-255.7S397,0,255.7,0Z"/></g></svg>